<svg width="24" height="24" viewBox="0 0 24 24" fill="none" xmlns="http://www.w3.org/2000/svg">
<path d="M10.0124 18V17.24L12.2024 14.81C12.5424 14.43 12.7957 14.09 12.9624 13.79C13.1357 13.4833 13.2224 13.1667 13.2224 12.84C13.2224 12.5133 13.119 12.2433 12.9124 12.03C12.7124 11.81 12.4324 11.7 12.0724 11.7C11.7457 11.7 11.4724 11.81 11.2524 12.03C11.0324 12.2433 10.9224 12.5333 10.9224 12.9H10.0524C10.0724 12.3333 10.2757 11.87 10.6624 11.51C11.049 11.1433 11.5257 10.96 12.0924 10.96C12.7257 10.96 13.2157 11.1367 13.5624 11.49C13.909 11.8367 14.0824 12.26 14.0824 12.76C14.0824 13.2 13.9757 13.61 13.7624 13.99C13.549 14.3633 13.2257 14.79 12.7924 15.27L11.0024 17.24H14.2024V18H10.0124Z" fill="#111111"/>
<path d="M20.5 9V20.5H3.5V9H20.5Z" stroke="#111111"/>
<path d="M16.5 7.5C16.5 5.01472 14.4853 3 12 3C9.51472 3 7.5 5.01472 7.5 7.5" stroke="#111111"/>
</svg>
