<svg width="24" height="24" viewBox="0 0 24 24" fill="none" xmlns="http://www.w3.org/2000/svg">
<rect x="2.5" y="2.5" width="19" height="19" rx="5" stroke="#111111" stroke-width="2"/>
<path d="M17.5 8C17.2033 8 16.9133 7.91202 16.6666 7.7472C16.42 7.58238 16.2277 7.34811 16.1142 7.07402C16.0006 6.79993 15.9709 6.49833 16.0288 6.20736C16.0867 5.91639 16.2296 5.64912 16.4393 5.43934C16.6491 5.22956 16.9164 5.0867 17.2074 5.02882C17.4983 4.97094 17.7999 5.00065 18.074 5.11418C18.3481 5.22771 18.5824 5.41997 18.7472 5.66664C18.912 5.91332 19 6.20333 19 6.5C19.0004 6.6971 18.9619 6.89234 18.8867 7.07452C18.8114 7.2567 18.701 7.42223 18.5616 7.5616C18.4222 7.70097 18.2567 7.81145 18.0745 7.88668C17.8923 7.96191 17.6971 8.00042 17.5 8Z" fill="#111111"/>
<path d="M12 7.75C13.1272 7.75 14.2079 8.19809 15.0049 8.99512C15.8019 9.79215 16.25 10.8728 16.25 12C16.25 12.8405 16.0011 13.6624 15.5342 14.3613C15.0672 15.0602 14.4026 15.6051 13.626 15.9268C12.8495 16.2483 11.9952 16.3319 11.1709 16.168C10.3465 16.004 9.58948 15.5992 8.99512 15.0049C8.40075 14.4105 7.99602 13.6535 7.83203 12.8291C7.66808 12.0048 7.75173 11.1505 8.07324 10.374C8.39491 9.59744 8.93976 8.93282 9.63867 8.46582C10.3376 7.99886 11.1595 7.75 12 7.75Z" stroke="#111111" stroke-width="2"/>
</svg>
