<svg width="115" height="25" viewBox="0 0 115 25" fill="none" xmlns="http://www.w3.org/2000/svg">
<mask id="path-1-outside-1_27_5678" maskUnits="userSpaceOnUse" x="-0.705566" y="-0.620728" width="116" height="26" fill="black">
<rect fill="white" x="-0.705566" y="-0.620728" width="116" height="26"/>
<path d="M0.294434 22.2699L1.60693 17.6293L1.82568 17.6605C2.10693 19.4105 2.97152 20.8428 4.41943 21.9574C5.86735 23.0616 7.59652 23.6136 9.60693 23.6136C11.4819 23.6136 13.0288 23.1293 14.2476 22.1605C15.4663 21.1814 16.0757 19.9678 16.0757 18.5199C16.0757 17.7282 15.8882 17.0616 15.5132 16.5199C15.1486 15.9678 14.5861 15.5147 13.8257 15.1605C13.1903 14.8689 12.1174 14.6293 10.6069 14.4418C9.10693 14.2439 8.01839 14.0668 7.34131 13.9105C5.36214 13.4939 3.88298 12.8428 2.90381 11.9574C1.93506 11.0616 1.45068 9.92094 1.45068 8.53552C1.45068 6.79594 2.29964 5.33761 3.99756 4.16052C5.69548 2.98344 7.87256 2.3949 10.5288 2.3949C11.9455 2.3949 13.2788 2.53031 14.5288 2.80115C15.7788 3.07198 17.0601 3.50427 18.3726 4.09802L17.1851 7.8949L16.9038 7.86365C16.6434 6.36365 15.9507 5.19698 14.8257 4.36365C13.7007 3.5199 12.258 3.09802 10.4976 3.09802C8.76839 3.09802 7.33089 3.53031 6.18506 4.3949C5.04964 5.25948 4.48193 6.3324 4.48193 7.61365C4.48193 8.28031 4.65381 8.87406 4.99756 9.3949C5.35173 9.91573 5.85173 10.322 6.49756 10.6136C7.38298 11.0303 8.96631 11.4001 11.2476 11.723C12.2163 11.8584 12.9611 11.973 13.4819 12.0668C15.4299 12.4001 16.8726 12.9886 17.8101 13.8324C18.758 14.6761 19.2319 15.7907 19.2319 17.1761C19.2319 19.2282 18.3361 20.9366 16.5444 22.3011C14.7528 23.6657 12.4507 24.348 9.63818 24.348C7.8361 24.348 6.12777 24.1657 4.51318 23.8011C2.90902 23.447 1.50277 22.9366 0.294434 22.2699Z"/>
<path d="M40.5288 23.7699C40.508 23.7699 40.4767 23.7699 40.4351 23.7699C39.2996 23.7282 38.4767 23.7074 37.9663 23.7074H37.1069C36.8361 23.2282 36.6017 22.7334 36.4038 22.223C36.2163 21.7126 36.0653 21.1814 35.9507 20.6293C35.3257 21.7751 34.4715 22.6449 33.3882 23.2386C32.3049 23.8324 31.0288 24.1293 29.5601 24.1293C27.5496 24.1293 25.9559 23.6553 24.7788 22.7074C23.6121 21.7595 23.0288 20.4834 23.0288 18.8793C23.0288 17.098 24.0653 15.7491 26.1382 14.8324C28.2111 13.9053 31.2476 13.4418 35.2476 13.4418L36.0444 13.4261C35.9924 11.2907 35.5392 9.71781 34.6851 8.7074C33.8309 7.69698 32.5236 7.19177 30.7632 7.19177C29.1382 7.19177 27.8257 7.56677 26.8257 8.31677C25.8257 9.05636 25.2007 10.1241 24.9507 11.5199H24.7788L23.7944 8.25427C24.8361 7.69177 25.9559 7.27511 27.1538 7.00427C28.3621 6.72302 29.6434 6.5824 30.9976 6.5824C32.3309 6.5824 33.5132 6.75427 34.5444 7.09802C35.5861 7.44177 36.4194 7.93136 37.0444 8.56677C37.5653 9.10844 37.9351 9.75948 38.1538 10.5199C38.3726 11.2699 38.4819 12.4991 38.4819 14.2074V16.5043C38.4819 19.1501 38.6278 20.9366 38.9194 21.8636C39.2215 22.7907 39.758 23.3532 40.5288 23.5511V23.7699ZM36.0444 14.1136C35.8882 14.1032 35.7111 14.098 35.5132 14.098C35.3257 14.0876 35.0444 14.0824 34.6694 14.0824C31.8778 14.0824 29.7215 14.5199 28.2007 15.3949C26.6903 16.2595 25.9351 17.4939 25.9351 19.098C25.9351 20.348 26.3413 21.348 27.1538 22.098C27.9663 22.848 29.0444 23.223 30.3882 23.223C32.1486 23.223 33.5288 22.6657 34.5288 21.5511C35.5392 20.4261 36.0444 18.8741 36.0444 16.8949V14.1136Z"/>
<path d="M42.2944 23.8011V23.5511C43.0444 23.3116 43.5601 22.8741 43.8413 22.2386C44.133 21.5928 44.2788 20.322 44.2788 18.4261V5.05115C44.2788 3.62406 44.159 2.74386 43.9194 2.41052C43.6799 2.06677 43.2215 1.86886 42.5444 1.81677V1.56677C43.1903 1.48344 43.8621 1.34802 44.5601 1.16052C45.258 0.962606 45.9924 0.702189 46.7632 0.379272C46.7424 1.34802 46.7163 2.56677 46.6851 4.03552C46.633 6.00427 46.6069 7.10844 46.6069 7.34802V11.348C46.9715 9.82719 47.7267 8.66052 48.8726 7.84802C50.0288 7.02511 51.4924 6.61365 53.2632 6.61365C55.6382 6.61365 57.3413 7.25427 58.3726 8.53552C59.4038 9.80636 59.9194 11.9939 59.9194 15.098V18.0043C59.9194 20.1397 60.0601 21.5407 60.3413 22.2074C60.6226 22.8741 61.1434 23.322 61.9038 23.5511V23.8011C61.3517 23.7699 60.8049 23.7439 60.2632 23.723C59.7319 23.7126 59.1903 23.7074 58.6382 23.7074C58.2319 23.7074 57.7632 23.7126 57.2319 23.723C56.7007 23.7439 56.1174 23.7699 55.4819 23.8011L55.4663 23.5511C56.2267 23.3324 56.7476 22.8845 57.0288 22.2074C57.3101 21.5303 57.4507 20.1293 57.4507 18.0043V14.723C57.4507 12.1189 57.0653 10.2595 56.2944 9.1449C55.534 8.0199 54.2996 7.4574 52.5913 7.4574C50.7371 7.4574 49.2892 8.09802 48.2476 9.37927C47.2163 10.6501 46.7007 12.4418 46.7007 14.7543V17.1449C46.7007 19.7907 46.8413 21.4626 47.1226 22.1605C47.4038 22.8584 47.9351 23.322 48.7163 23.5511V23.8011C48.1642 23.7699 47.6226 23.7439 47.0913 23.723C46.5601 23.7126 46.034 23.7074 45.5132 23.7074C44.7528 23.7074 44.133 23.7126 43.6538 23.723C43.1851 23.7439 42.7319 23.7699 42.2944 23.8011Z"/>
<path d="M81.9976 23.7699C81.9767 23.7699 81.9455 23.7699 81.9038 23.7699C80.7684 23.7282 79.9455 23.7074 79.4351 23.7074H78.5757C78.3048 23.2282 78.0705 22.7334 77.8726 22.223C77.6851 21.7126 77.534 21.1814 77.4194 20.6293C76.7944 21.7751 75.9403 22.6449 74.8569 23.2386C73.7736 23.8324 72.4976 24.1293 71.0288 24.1293C69.0184 24.1293 67.4246 23.6553 66.2476 22.7074C65.0809 21.7595 64.4976 20.4834 64.4976 18.8793C64.4976 17.098 65.534 15.7491 67.6069 14.8324C69.6798 13.9053 72.7163 13.4418 76.7163 13.4418L77.5132 13.4261C77.4611 11.2907 77.008 9.71781 76.1538 8.7074C75.2996 7.69698 73.9923 7.19177 72.2319 7.19177C70.6069 7.19177 69.2944 7.56677 68.2944 8.31677C67.2944 9.05636 66.6694 10.1241 66.4194 11.5199H66.2476L65.2632 8.25427C66.3048 7.69177 67.4246 7.27511 68.6226 7.00427C69.8309 6.72302 71.1121 6.5824 72.4663 6.5824C73.7996 6.5824 74.9819 6.75427 76.0132 7.09802C77.0548 7.44177 77.8882 7.93136 78.5132 8.56677C79.034 9.10844 79.4038 9.75948 79.6226 10.5199C79.8413 11.2699 79.9507 12.4991 79.9507 14.2074V16.5043C79.9507 19.1501 80.0965 20.9366 80.3882 21.8636C80.6903 22.7907 81.2267 23.3532 81.9976 23.5511V23.7699ZM77.5132 14.1136C77.3569 14.1032 77.1798 14.098 76.9819 14.098C76.7944 14.0876 76.5132 14.0824 76.1382 14.0824C73.3465 14.0824 71.1903 14.5199 69.6694 15.3949C68.159 16.2595 67.4038 17.4939 67.4038 19.098C67.4038 20.348 67.8101 21.348 68.6226 22.098C69.4351 22.848 70.5132 23.223 71.8569 23.223C73.6173 23.223 74.9976 22.6657 75.9976 21.5511C77.008 20.4261 77.5132 18.8741 77.5132 16.8949V14.1136Z"/>
<path d="M83.9194 23.8011V23.5511C84.7007 23.322 85.2371 22.8636 85.5288 22.1761C85.8205 21.4886 85.9663 20.0043 85.9663 17.723V12.1293C85.9663 10.4001 85.8413 9.34802 85.5913 8.97302C85.3517 8.59802 84.883 8.40011 84.1851 8.37927L84.1694 8.12927C84.7319 8.00427 85.3413 7.85323 85.9976 7.67615C86.6538 7.49906 87.3986 7.27511 88.2319 7.00427L88.1694 11.8636C88.8673 10.2595 89.7111 9.04073 90.7007 8.2074C91.6903 7.36365 92.7892 6.94177 93.9976 6.94177C94.1642 6.94177 94.2944 6.94698 94.3882 6.9574C94.4819 6.9574 94.5653 6.96261 94.6382 6.97302L93.4194 10.4886H93.2632C93.0548 10.2178 92.8205 10.0199 92.5601 9.8949C92.2996 9.75948 92.008 9.69177 91.6851 9.69177C90.633 9.69177 89.8257 10.1866 89.2632 11.1761C88.7111 12.1553 88.4351 13.5824 88.4351 15.4574V17.3324C88.4351 19.8741 88.5757 21.4886 88.8569 22.1761C89.1382 22.8532 89.6798 23.3116 90.4819 23.5511L90.4663 23.8011C89.9038 23.7699 89.3465 23.7439 88.7944 23.723C88.2528 23.7126 87.7163 23.7074 87.1851 23.7074C86.7371 23.7074 86.2423 23.7126 85.7007 23.723C85.159 23.7439 84.5653 23.7699 83.9194 23.8011Z"/>
<path d="M114.404 23.7699C114.383 23.7699 114.352 23.7699 114.31 23.7699C113.175 23.7282 112.352 23.7074 111.841 23.7074H110.982C110.711 23.2282 110.477 22.7334 110.279 22.223C110.091 21.7126 109.94 21.1814 109.826 20.6293C109.201 21.7751 108.347 22.6449 107.263 23.2386C106.18 23.8324 104.904 24.1293 103.435 24.1293C101.425 24.1293 99.8309 23.6553 98.6538 22.7074C97.4871 21.7595 96.9038 20.4834 96.9038 18.8793C96.9038 17.098 97.9403 15.7491 100.013 14.8324C102.086 13.9053 105.123 13.4418 109.123 13.4418L109.919 13.4261C109.867 11.2907 109.414 9.71781 108.56 8.7074C107.706 7.69698 106.399 7.19177 104.638 7.19177C103.013 7.19177 101.701 7.56677 100.701 8.31677C99.7007 9.05636 99.0757 10.1241 98.8257 11.5199H98.6538L97.6694 8.25427C98.7111 7.69177 99.8309 7.27511 101.029 7.00427C102.237 6.72302 103.518 6.5824 104.873 6.5824C106.206 6.5824 107.388 6.75427 108.419 7.09802C109.461 7.44177 110.294 7.93136 110.919 8.56677C111.44 9.10844 111.81 9.75948 112.029 10.5199C112.248 11.2699 112.357 12.4991 112.357 14.2074V16.5043C112.357 19.1501 112.503 20.9366 112.794 21.8636C113.097 22.7907 113.633 23.3532 114.404 23.5511V23.7699ZM109.919 14.1136C109.763 14.1032 109.586 14.098 109.388 14.098C109.201 14.0876 108.919 14.0824 108.544 14.0824C105.753 14.0824 103.597 14.5199 102.076 15.3949C100.565 16.2595 99.8101 17.4939 99.8101 19.098C99.8101 20.348 100.216 21.348 101.029 22.098C101.841 22.848 102.919 23.223 104.263 23.223C106.024 23.223 107.404 22.6657 108.404 21.5511C109.414 20.4261 109.919 18.8741 109.919 16.8949V14.1136Z"/>
</mask>
<path d="M0.294434 22.2699L1.60693 17.6293L1.82568 17.6605C2.10693 19.4105 2.97152 20.8428 4.41943 21.9574C5.86735 23.0616 7.59652 23.6136 9.60693 23.6136C11.4819 23.6136 13.0288 23.1293 14.2476 22.1605C15.4663 21.1814 16.0757 19.9678 16.0757 18.5199C16.0757 17.7282 15.8882 17.0616 15.5132 16.5199C15.1486 15.9678 14.5861 15.5147 13.8257 15.1605C13.1903 14.8689 12.1174 14.6293 10.6069 14.4418C9.10693 14.2439 8.01839 14.0668 7.34131 13.9105C5.36214 13.4939 3.88298 12.8428 2.90381 11.9574C1.93506 11.0616 1.45068 9.92094 1.45068 8.53552C1.45068 6.79594 2.29964 5.33761 3.99756 4.16052C5.69548 2.98344 7.87256 2.3949 10.5288 2.3949C11.9455 2.3949 13.2788 2.53031 14.5288 2.80115C15.7788 3.07198 17.0601 3.50427 18.3726 4.09802L17.1851 7.8949L16.9038 7.86365C16.6434 6.36365 15.9507 5.19698 14.8257 4.36365C13.7007 3.5199 12.258 3.09802 10.4976 3.09802C8.76839 3.09802 7.33089 3.53031 6.18506 4.3949C5.04964 5.25948 4.48193 6.3324 4.48193 7.61365C4.48193 8.28031 4.65381 8.87406 4.99756 9.3949C5.35173 9.91573 5.85173 10.322 6.49756 10.6136C7.38298 11.0303 8.96631 11.4001 11.2476 11.723C12.2163 11.8584 12.9611 11.973 13.4819 12.0668C15.4299 12.4001 16.8726 12.9886 17.8101 13.8324C18.758 14.6761 19.2319 15.7907 19.2319 17.1761C19.2319 19.2282 18.3361 20.9366 16.5444 22.3011C14.7528 23.6657 12.4507 24.348 9.63818 24.348C7.8361 24.348 6.12777 24.1657 4.51318 23.8011C2.90902 23.447 1.50277 22.9366 0.294434 22.2699Z" fill="#111111"/>
<path d="M40.5288 23.7699C40.508 23.7699 40.4767 23.7699 40.4351 23.7699C39.2996 23.7282 38.4767 23.7074 37.9663 23.7074H37.1069C36.8361 23.2282 36.6017 22.7334 36.4038 22.223C36.2163 21.7126 36.0653 21.1814 35.9507 20.6293C35.3257 21.7751 34.4715 22.6449 33.3882 23.2386C32.3049 23.8324 31.0288 24.1293 29.5601 24.1293C27.5496 24.1293 25.9559 23.6553 24.7788 22.7074C23.6121 21.7595 23.0288 20.4834 23.0288 18.8793C23.0288 17.098 24.0653 15.7491 26.1382 14.8324C28.2111 13.9053 31.2476 13.4418 35.2476 13.4418L36.0444 13.4261C35.9924 11.2907 35.5392 9.71781 34.6851 8.7074C33.8309 7.69698 32.5236 7.19177 30.7632 7.19177C29.1382 7.19177 27.8257 7.56677 26.8257 8.31677C25.8257 9.05636 25.2007 10.1241 24.9507 11.5199H24.7788L23.7944 8.25427C24.8361 7.69177 25.9559 7.27511 27.1538 7.00427C28.3621 6.72302 29.6434 6.5824 30.9976 6.5824C32.3309 6.5824 33.5132 6.75427 34.5444 7.09802C35.5861 7.44177 36.4194 7.93136 37.0444 8.56677C37.5653 9.10844 37.9351 9.75948 38.1538 10.5199C38.3726 11.2699 38.4819 12.4991 38.4819 14.2074V16.5043C38.4819 19.1501 38.6278 20.9366 38.9194 21.8636C39.2215 22.7907 39.758 23.3532 40.5288 23.5511V23.7699ZM36.0444 14.1136C35.8882 14.1032 35.7111 14.098 35.5132 14.098C35.3257 14.0876 35.0444 14.0824 34.6694 14.0824C31.8778 14.0824 29.7215 14.5199 28.2007 15.3949C26.6903 16.2595 25.9351 17.4939 25.9351 19.098C25.9351 20.348 26.3413 21.348 27.1538 22.098C27.9663 22.848 29.0444 23.223 30.3882 23.223C32.1486 23.223 33.5288 22.6657 34.5288 21.5511C35.5392 20.4261 36.0444 18.8741 36.0444 16.8949V14.1136Z" fill="#111111"/>
<path d="M42.2944 23.8011V23.5511C43.0444 23.3116 43.5601 22.8741 43.8413 22.2386C44.133 21.5928 44.2788 20.322 44.2788 18.4261V5.05115C44.2788 3.62406 44.159 2.74386 43.9194 2.41052C43.6799 2.06677 43.2215 1.86886 42.5444 1.81677V1.56677C43.1903 1.48344 43.8621 1.34802 44.5601 1.16052C45.258 0.962606 45.9924 0.702189 46.7632 0.379272C46.7424 1.34802 46.7163 2.56677 46.6851 4.03552C46.633 6.00427 46.6069 7.10844 46.6069 7.34802V11.348C46.9715 9.82719 47.7267 8.66052 48.8726 7.84802C50.0288 7.02511 51.4924 6.61365 53.2632 6.61365C55.6382 6.61365 57.3413 7.25427 58.3726 8.53552C59.4038 9.80636 59.9194 11.9939 59.9194 15.098V18.0043C59.9194 20.1397 60.0601 21.5407 60.3413 22.2074C60.6226 22.8741 61.1434 23.322 61.9038 23.5511V23.8011C61.3517 23.7699 60.8049 23.7439 60.2632 23.723C59.7319 23.7126 59.1903 23.7074 58.6382 23.7074C58.2319 23.7074 57.7632 23.7126 57.2319 23.723C56.7007 23.7439 56.1174 23.7699 55.4819 23.8011L55.4663 23.5511C56.2267 23.3324 56.7476 22.8845 57.0288 22.2074C57.3101 21.5303 57.4507 20.1293 57.4507 18.0043V14.723C57.4507 12.1189 57.0653 10.2595 56.2944 9.1449C55.534 8.0199 54.2996 7.4574 52.5913 7.4574C50.7371 7.4574 49.2892 8.09802 48.2476 9.37927C47.2163 10.6501 46.7007 12.4418 46.7007 14.7543V17.1449C46.7007 19.7907 46.8413 21.4626 47.1226 22.1605C47.4038 22.8584 47.9351 23.322 48.7163 23.5511V23.8011C48.1642 23.7699 47.6226 23.7439 47.0913 23.723C46.5601 23.7126 46.034 23.7074 45.5132 23.7074C44.7528 23.7074 44.133 23.7126 43.6538 23.723C43.1851 23.7439 42.7319 23.7699 42.2944 23.8011Z" fill="#111111"/>
<path d="M81.9976 23.7699C81.9767 23.7699 81.9455 23.7699 81.9038 23.7699C80.7684 23.7282 79.9455 23.7074 79.4351 23.7074H78.5757C78.3048 23.2282 78.0705 22.7334 77.8726 22.223C77.6851 21.7126 77.534 21.1814 77.4194 20.6293C76.7944 21.7751 75.9403 22.6449 74.8569 23.2386C73.7736 23.8324 72.4976 24.1293 71.0288 24.1293C69.0184 24.1293 67.4246 23.6553 66.2476 22.7074C65.0809 21.7595 64.4976 20.4834 64.4976 18.8793C64.4976 17.098 65.534 15.7491 67.6069 14.8324C69.6798 13.9053 72.7163 13.4418 76.7163 13.4418L77.5132 13.4261C77.4611 11.2907 77.008 9.71781 76.1538 8.7074C75.2996 7.69698 73.9923 7.19177 72.2319 7.19177C70.6069 7.19177 69.2944 7.56677 68.2944 8.31677C67.2944 9.05636 66.6694 10.1241 66.4194 11.5199H66.2476L65.2632 8.25427C66.3048 7.69177 67.4246 7.27511 68.6226 7.00427C69.8309 6.72302 71.1121 6.5824 72.4663 6.5824C73.7996 6.5824 74.9819 6.75427 76.0132 7.09802C77.0548 7.44177 77.8882 7.93136 78.5132 8.56677C79.034 9.10844 79.4038 9.75948 79.6226 10.5199C79.8413 11.2699 79.9507 12.4991 79.9507 14.2074V16.5043C79.9507 19.1501 80.0965 20.9366 80.3882 21.8636C80.6903 22.7907 81.2267 23.3532 81.9976 23.5511V23.7699ZM77.5132 14.1136C77.3569 14.1032 77.1798 14.098 76.9819 14.098C76.7944 14.0876 76.5132 14.0824 76.1382 14.0824C73.3465 14.0824 71.1903 14.5199 69.6694 15.3949C68.159 16.2595 67.4038 17.4939 67.4038 19.098C67.4038 20.348 67.8101 21.348 68.6226 22.098C69.4351 22.848 70.5132 23.223 71.8569 23.223C73.6173 23.223 74.9976 22.6657 75.9976 21.5511C77.008 20.4261 77.5132 18.8741 77.5132 16.8949V14.1136Z" fill="#111111"/>
<path d="M83.9194 23.8011V23.5511C84.7007 23.322 85.2371 22.8636 85.5288 22.1761C85.8205 21.4886 85.9663 20.0043 85.9663 17.723V12.1293C85.9663 10.4001 85.8413 9.34802 85.5913 8.97302C85.3517 8.59802 84.883 8.40011 84.1851 8.37927L84.1694 8.12927C84.7319 8.00427 85.3413 7.85323 85.9976 7.67615C86.6538 7.49906 87.3986 7.27511 88.2319 7.00427L88.1694 11.8636C88.8673 10.2595 89.7111 9.04073 90.7007 8.2074C91.6903 7.36365 92.7892 6.94177 93.9976 6.94177C94.1642 6.94177 94.2944 6.94698 94.3882 6.9574C94.4819 6.9574 94.5653 6.96261 94.6382 6.97302L93.4194 10.4886H93.2632C93.0548 10.2178 92.8205 10.0199 92.5601 9.8949C92.2996 9.75948 92.008 9.69177 91.6851 9.69177C90.633 9.69177 89.8257 10.1866 89.2632 11.1761C88.7111 12.1553 88.4351 13.5824 88.4351 15.4574V17.3324C88.4351 19.8741 88.5757 21.4886 88.8569 22.1761C89.1382 22.8532 89.6798 23.3116 90.4819 23.5511L90.4663 23.8011C89.9038 23.7699 89.3465 23.7439 88.7944 23.723C88.2528 23.7126 87.7163 23.7074 87.1851 23.7074C86.7371 23.7074 86.2423 23.7126 85.7007 23.723C85.159 23.7439 84.5653 23.7699 83.9194 23.8011Z" fill="#111111"/>
<path d="M114.404 23.7699C114.383 23.7699 114.352 23.7699 114.31 23.7699C113.175 23.7282 112.352 23.7074 111.841 23.7074H110.982C110.711 23.2282 110.477 22.7334 110.279 22.223C110.091 21.7126 109.94 21.1814 109.826 20.6293C109.201 21.7751 108.347 22.6449 107.263 23.2386C106.18 23.8324 104.904 24.1293 103.435 24.1293C101.425 24.1293 99.8309 23.6553 98.6538 22.7074C97.4871 21.7595 96.9038 20.4834 96.9038 18.8793C96.9038 17.098 97.9403 15.7491 100.013 14.8324C102.086 13.9053 105.123 13.4418 109.123 13.4418L109.919 13.4261C109.867 11.2907 109.414 9.71781 108.56 8.7074C107.706 7.69698 106.399 7.19177 104.638 7.19177C103.013 7.19177 101.701 7.56677 100.701 8.31677C99.7007 9.05636 99.0757 10.1241 98.8257 11.5199H98.6538L97.6694 8.25427C98.7111 7.69177 99.8309 7.27511 101.029 7.00427C102.237 6.72302 103.518 6.5824 104.873 6.5824C106.206 6.5824 107.388 6.75427 108.419 7.09802C109.461 7.44177 110.294 7.93136 110.919 8.56677C111.44 9.10844 111.81 9.75948 112.029 10.5199C112.248 11.2699 112.357 12.4991 112.357 14.2074V16.5043C112.357 19.1501 112.503 20.9366 112.794 21.8636C113.097 22.7907 113.633 23.3532 114.404 23.5511V23.7699ZM109.919 14.1136C109.763 14.1032 109.586 14.098 109.388 14.098C109.201 14.0876 108.919 14.0824 108.544 14.0824C105.753 14.0824 103.597 14.5199 102.076 15.3949C100.565 16.2595 99.8101 17.4939 99.8101 19.098C99.8101 20.348 100.216 21.348 101.029 22.098C101.841 22.848 102.919 23.223 104.263 23.223C106.024 23.223 107.404 22.6657 108.404 21.5511C109.414 20.4261 109.919 18.8741 109.919 16.8949V14.1136Z" fill="#111111"/>
<path d="M0.294434 22.2699L1.60693 17.6293L1.82568 17.6605C2.10693 19.4105 2.97152 20.8428 4.41943 21.9574C5.86735 23.0616 7.59652 23.6136 9.60693 23.6136C11.4819 23.6136 13.0288 23.1293 14.2476 22.1605C15.4663 21.1814 16.0757 19.9678 16.0757 18.5199C16.0757 17.7282 15.8882 17.0616 15.5132 16.5199C15.1486 15.9678 14.5861 15.5147 13.8257 15.1605C13.1903 14.8689 12.1174 14.6293 10.6069 14.4418C9.10693 14.2439 8.01839 14.0668 7.34131 13.9105C5.36214 13.4939 3.88298 12.8428 2.90381 11.9574C1.93506 11.0616 1.45068 9.92094 1.45068 8.53552C1.45068 6.79594 2.29964 5.33761 3.99756 4.16052C5.69548 2.98344 7.87256 2.3949 10.5288 2.3949C11.9455 2.3949 13.2788 2.53031 14.5288 2.80115C15.7788 3.07198 17.0601 3.50427 18.3726 4.09802L17.1851 7.8949L16.9038 7.86365C16.6434 6.36365 15.9507 5.19698 14.8257 4.36365C13.7007 3.5199 12.258 3.09802 10.4976 3.09802C8.76839 3.09802 7.33089 3.53031 6.18506 4.3949C5.04964 5.25948 4.48193 6.3324 4.48193 7.61365C4.48193 8.28031 4.65381 8.87406 4.99756 9.3949C5.35173 9.91573 5.85173 10.322 6.49756 10.6136C7.38298 11.0303 8.96631 11.4001 11.2476 11.723C12.2163 11.8584 12.9611 11.973 13.4819 12.0668C15.4299 12.4001 16.8726 12.9886 17.8101 13.8324C18.758 14.6761 19.2319 15.7907 19.2319 17.1761C19.2319 19.2282 18.3361 20.9366 16.5444 22.3011C14.7528 23.6657 12.4507 24.348 9.63818 24.348C7.8361 24.348 6.12777 24.1657 4.51318 23.8011C2.90902 23.447 1.50277 22.9366 0.294434 22.2699Z" stroke="#111111" stroke-width="0.5" mask="url(#path-1-outside-1_27_5678)"/>
<path d="M40.5288 23.7699C40.508 23.7699 40.4767 23.7699 40.4351 23.7699C39.2996 23.7282 38.4767 23.7074 37.9663 23.7074H37.1069C36.8361 23.2282 36.6017 22.7334 36.4038 22.223C36.2163 21.7126 36.0653 21.1814 35.9507 20.6293C35.3257 21.7751 34.4715 22.6449 33.3882 23.2386C32.3049 23.8324 31.0288 24.1293 29.5601 24.1293C27.5496 24.1293 25.9559 23.6553 24.7788 22.7074C23.6121 21.7595 23.0288 20.4834 23.0288 18.8793C23.0288 17.098 24.0653 15.7491 26.1382 14.8324C28.2111 13.9053 31.2476 13.4418 35.2476 13.4418L36.0444 13.4261C35.9924 11.2907 35.5392 9.71781 34.6851 8.7074C33.8309 7.69698 32.5236 7.19177 30.7632 7.19177C29.1382 7.19177 27.8257 7.56677 26.8257 8.31677C25.8257 9.05636 25.2007 10.1241 24.9507 11.5199H24.7788L23.7944 8.25427C24.8361 7.69177 25.9559 7.27511 27.1538 7.00427C28.3621 6.72302 29.6434 6.5824 30.9976 6.5824C32.3309 6.5824 33.5132 6.75427 34.5444 7.09802C35.5861 7.44177 36.4194 7.93136 37.0444 8.56677C37.5653 9.10844 37.9351 9.75948 38.1538 10.5199C38.3726 11.2699 38.4819 12.4991 38.4819 14.2074V16.5043C38.4819 19.1501 38.6278 20.9366 38.9194 21.8636C39.2215 22.7907 39.758 23.3532 40.5288 23.5511V23.7699ZM36.0444 14.1136C35.8882 14.1032 35.7111 14.098 35.5132 14.098C35.3257 14.0876 35.0444 14.0824 34.6694 14.0824C31.8778 14.0824 29.7215 14.5199 28.2007 15.3949C26.6903 16.2595 25.9351 17.4939 25.9351 19.098C25.9351 20.348 26.3413 21.348 27.1538 22.098C27.9663 22.848 29.0444 23.223 30.3882 23.223C32.1486 23.223 33.5288 22.6657 34.5288 21.5511C35.5392 20.4261 36.0444 18.8741 36.0444 16.8949V14.1136Z" stroke="#111111" stroke-width="0.5" mask="url(#path-1-outside-1_27_5678)"/>
<path d="M42.2944 23.8011V23.5511C43.0444 23.3116 43.5601 22.8741 43.8413 22.2386C44.133 21.5928 44.2788 20.322 44.2788 18.4261V5.05115C44.2788 3.62406 44.159 2.74386 43.9194 2.41052C43.6799 2.06677 43.2215 1.86886 42.5444 1.81677V1.56677C43.1903 1.48344 43.8621 1.34802 44.5601 1.16052C45.258 0.962606 45.9924 0.702189 46.7632 0.379272C46.7424 1.34802 46.7163 2.56677 46.6851 4.03552C46.633 6.00427 46.6069 7.10844 46.6069 7.34802V11.348C46.9715 9.82719 47.7267 8.66052 48.8726 7.84802C50.0288 7.02511 51.4924 6.61365 53.2632 6.61365C55.6382 6.61365 57.3413 7.25427 58.3726 8.53552C59.4038 9.80636 59.9194 11.9939 59.9194 15.098V18.0043C59.9194 20.1397 60.0601 21.5407 60.3413 22.2074C60.6226 22.8741 61.1434 23.322 61.9038 23.5511V23.8011C61.3517 23.7699 60.8049 23.7439 60.2632 23.723C59.7319 23.7126 59.1903 23.7074 58.6382 23.7074C58.2319 23.7074 57.7632 23.7126 57.2319 23.723C56.7007 23.7439 56.1174 23.7699 55.4819 23.8011L55.4663 23.5511C56.2267 23.3324 56.7476 22.8845 57.0288 22.2074C57.3101 21.5303 57.4507 20.1293 57.4507 18.0043V14.723C57.4507 12.1189 57.0653 10.2595 56.2944 9.1449C55.534 8.0199 54.2996 7.4574 52.5913 7.4574C50.7371 7.4574 49.2892 8.09802 48.2476 9.37927C47.2163 10.6501 46.7007 12.4418 46.7007 14.7543V17.1449C46.7007 19.7907 46.8413 21.4626 47.1226 22.1605C47.4038 22.8584 47.9351 23.322 48.7163 23.5511V23.8011C48.1642 23.7699 47.6226 23.7439 47.0913 23.723C46.5601 23.7126 46.034 23.7074 45.5132 23.7074C44.7528 23.7074 44.133 23.7126 43.6538 23.723C43.1851 23.7439 42.7319 23.7699 42.2944 23.8011Z" stroke="#111111" stroke-width="0.5" mask="url(#path-1-outside-1_27_5678)"/>
<path d="M81.9976 23.7699C81.9767 23.7699 81.9455 23.7699 81.9038 23.7699C80.7684 23.7282 79.9455 23.7074 79.4351 23.7074H78.5757C78.3048 23.2282 78.0705 22.7334 77.8726 22.223C77.6851 21.7126 77.534 21.1814 77.4194 20.6293C76.7944 21.7751 75.9403 22.6449 74.8569 23.2386C73.7736 23.8324 72.4976 24.1293 71.0288 24.1293C69.0184 24.1293 67.4246 23.6553 66.2476 22.7074C65.0809 21.7595 64.4976 20.4834 64.4976 18.8793C64.4976 17.098 65.534 15.7491 67.6069 14.8324C69.6798 13.9053 72.7163 13.4418 76.7163 13.4418L77.5132 13.4261C77.4611 11.2907 77.008 9.71781 76.1538 8.7074C75.2996 7.69698 73.9923 7.19177 72.2319 7.19177C70.6069 7.19177 69.2944 7.56677 68.2944 8.31677C67.2944 9.05636 66.6694 10.1241 66.4194 11.5199H66.2476L65.2632 8.25427C66.3048 7.69177 67.4246 7.27511 68.6226 7.00427C69.8309 6.72302 71.1121 6.5824 72.4663 6.5824C73.7996 6.5824 74.9819 6.75427 76.0132 7.09802C77.0548 7.44177 77.8882 7.93136 78.5132 8.56677C79.034 9.10844 79.4038 9.75948 79.6226 10.5199C79.8413 11.2699 79.9507 12.4991 79.9507 14.2074V16.5043C79.9507 19.1501 80.0965 20.9366 80.3882 21.8636C80.6903 22.7907 81.2267 23.3532 81.9976 23.5511V23.7699ZM77.5132 14.1136C77.3569 14.1032 77.1798 14.098 76.9819 14.098C76.7944 14.0876 76.5132 14.0824 76.1382 14.0824C73.3465 14.0824 71.1903 14.5199 69.6694 15.3949C68.159 16.2595 67.4038 17.4939 67.4038 19.098C67.4038 20.348 67.8101 21.348 68.6226 22.098C69.4351 22.848 70.5132 23.223 71.8569 23.223C73.6173 23.223 74.9976 22.6657 75.9976 21.5511C77.008 20.4261 77.5132 18.8741 77.5132 16.8949V14.1136Z" stroke="#111111" stroke-width="0.5" mask="url(#path-1-outside-1_27_5678)"/>
<path d="M83.9194 23.8011V23.5511C84.7007 23.322 85.2371 22.8636 85.5288 22.1761C85.8205 21.4886 85.9663 20.0043 85.9663 17.723V12.1293C85.9663 10.4001 85.8413 9.34802 85.5913 8.97302C85.3517 8.59802 84.883 8.40011 84.1851 8.37927L84.1694 8.12927C84.7319 8.00427 85.3413 7.85323 85.9976 7.67615C86.6538 7.49906 87.3986 7.27511 88.2319 7.00427L88.1694 11.8636C88.8673 10.2595 89.7111 9.04073 90.7007 8.2074C91.6903 7.36365 92.7892 6.94177 93.9976 6.94177C94.1642 6.94177 94.2944 6.94698 94.3882 6.9574C94.4819 6.9574 94.5653 6.96261 94.6382 6.97302L93.4194 10.4886H93.2632C93.0548 10.2178 92.8205 10.0199 92.5601 9.8949C92.2996 9.75948 92.008 9.69177 91.6851 9.69177C90.633 9.69177 89.8257 10.1866 89.2632 11.1761C88.7111 12.1553 88.4351 13.5824 88.4351 15.4574V17.3324C88.4351 19.8741 88.5757 21.4886 88.8569 22.1761C89.1382 22.8532 89.6798 23.3116 90.4819 23.5511L90.4663 23.8011C89.9038 23.7699 89.3465 23.7439 88.7944 23.723C88.2528 23.7126 87.7163 23.7074 87.1851 23.7074C86.7371 23.7074 86.2423 23.7126 85.7007 23.723C85.159 23.7439 84.5653 23.7699 83.9194 23.8011Z" stroke="#111111" stroke-width="0.5" mask="url(#path-1-outside-1_27_5678)"/>
<path d="M114.404 23.7699C114.383 23.7699 114.352 23.7699 114.31 23.7699C113.175 23.7282 112.352 23.7074 111.841 23.7074H110.982C110.711 23.2282 110.477 22.7334 110.279 22.223C110.091 21.7126 109.94 21.1814 109.826 20.6293C109.201 21.7751 108.347 22.6449 107.263 23.2386C106.18 23.8324 104.904 24.1293 103.435 24.1293C101.425 24.1293 99.8309 23.6553 98.6538 22.7074C97.4871 21.7595 96.9038 20.4834 96.9038 18.8793C96.9038 17.098 97.9403 15.7491 100.013 14.8324C102.086 13.9053 105.123 13.4418 109.123 13.4418L109.919 13.4261C109.867 11.2907 109.414 9.71781 108.56 8.7074C107.706 7.69698 106.399 7.19177 104.638 7.19177C103.013 7.19177 101.701 7.56677 100.701 8.31677C99.7007 9.05636 99.0757 10.1241 98.8257 11.5199H98.6538L97.6694 8.25427C98.7111 7.69177 99.8309 7.27511 101.029 7.00427C102.237 6.72302 103.518 6.5824 104.873 6.5824C106.206 6.5824 107.388 6.75427 108.419 7.09802C109.461 7.44177 110.294 7.93136 110.919 8.56677C111.44 9.10844 111.81 9.75948 112.029 10.5199C112.248 11.2699 112.357 12.4991 112.357 14.2074V16.5043C112.357 19.1501 112.503 20.9366 112.794 21.8636C113.097 22.7907 113.633 23.3532 114.404 23.5511V23.7699ZM109.919 14.1136C109.763 14.1032 109.586 14.098 109.388 14.098C109.201 14.0876 108.919 14.0824 108.544 14.0824C105.753 14.0824 103.597 14.5199 102.076 15.3949C100.565 16.2595 99.8101 17.4939 99.8101 19.098C99.8101 20.348 100.216 21.348 101.029 22.098C101.841 22.848 102.919 23.223 104.263 23.223C106.024 23.223 107.404 22.6657 108.404 21.5511C109.414 20.4261 109.919 18.8741 109.919 16.8949V14.1136Z" stroke="#111111" stroke-width="0.5" mask="url(#path-1-outside-1_27_5678)"/>
</svg>
